<svg xmlns="http://www.w3.org/2000/svg" viewBox="0 0 1024 1024">
  <defs>
    <linearGradient id="bg" x1="0" y1="0" x2="1" y2="1">
      <stop offset="0%" stop-color="#0f3d2e"/>
      <stop offset="100%" stop-color="#0a3d3d"/>
    </linearGradient>
    <linearGradient id="grad" x1="0.15" y1="0.85" x2="0.85" y2="0.15">
      <stop offset="0%" stop-color="#4ade80"/>
      <stop offset="100%" stop-color="#22d3ee"/>
    </linearGradient>
    <radialGradient id="glow" cx="50%" cy="50%" r="30%">
      <stop offset="0%" stop-color="#2dd4bf" stop-opacity="0.08"/>
      <stop offset="100%" stop-color="#2dd4bf" stop-opacity="0"/>
    </radialGradient>
  </defs>

  <rect width="1024" height="1024" rx="224" fill="url(#bg)"/>
  <circle cx="512" cy="512" r="300" fill="url(#glow)"/>

  <!-- Circuit traces -->
  <g stroke="url(#grad)" stroke-width="12" fill="none" stroke-linecap="round" stroke-linejoin="round">
    <!-- Left -->
    <path d="M 210 345 H 310 V 408 H 405"/>
    <path d="M 240 435 H 305 V 465 H 370"/>
    <path d="M 240 575 H 305 V 548 H 370"/>
    <path d="M 210 665 H 310 V 605 H 405"/>
    <!-- Right -->
    <path d="M 814 345 H 714 V 408 H 619"/>
    <path d="M 784 435 H 719 V 465 H 654"/>
    <path d="M 784 575 H 719 V 548 H 654"/>
    <path d="M 814 665 H 714 V 605 H 619"/>
  </g>

  <!-- Brain folds -->
  <g stroke="url(#grad)" stroke-width="16" fill="none" stroke-linecap="round">
    <!-- Left hemisphere: 4 C-curves opening right -->
    <path d="M 490 388 C 440 380, 408 398, 408 418 C 408 438, 440 448, 490 444"/>
    <path d="M 490 454 C 418 448, 360 462, 360 488 C 360 514, 418 525, 490 520"/>
    <path d="M 490 530 C 418 524, 365 538, 365 562 C 365 586, 418 598, 490 592"/>
    <path d="M 490 602 C 440 596, 408 612, 408 632 C 408 652, 440 662, 490 658"/>

    <!-- Right hemisphere: 4 C-curves opening left -->
    <path d="M 534 388 C 584 380, 616 398, 616 418 C 616 438, 584 448, 534 444"/>
    <path d="M 534 454 C 606 448, 664 462, 664 488 C 664 514, 606 525, 534 520"/>
    <path d="M 534 530 C 606 524, 659 538, 659 562 C 659 586, 606 598, 534 592"/>
    <path d="M 534 602 C 584 596, 616 612, 616 632 C 616 652, 584 662, 534 658"/>

    <!-- Center circle -->
    <circle cx="512" cy="512" r="26"/>
  </g>

  <!-- Endpoint nodes -->
  <g fill="url(#grad)" stroke="none">
    <circle cx="210" cy="345" r="14"/>
    <circle cx="240" cy="435" r="14"/>
    <circle cx="240" cy="575" r="14"/>
    <circle cx="210" cy="665" r="14"/>
    <circle cx="814" cy="345" r="14"/>
    <circle cx="784" cy="435" r="14"/>
    <circle cx="784" cy="575" r="14"/>
    <circle cx="814" cy="665" r="14"/>
  </g>
</svg>
